HIERARCHY
ROOT Hips
{
	OFFSET 0.000000 8.830580 0.000000
	CHANNELS 6 Xposition Yposition Zposition Zrotation Yrotation Xrotation 
	JOINT Spine
	{
		OFFSET 0.000000 0.010000 0.000000
		CHANNELS 3 Zrotation Yrotation Xrotation
		JOINT Spine1
		{
			OFFSET 0.000000 2.459130 0.000000
			CHANNELS 3 Zrotation Yrotation Xrotation
			JOINT Neck
			{
				OFFSET 0.000000 2.484630 0.000000
				CHANNELS 3 Zrotation Yrotation Xrotation
				JOINT Head_virtual
				{
					OFFSET 0.000000 0.000000 0.000000
					CHANNELS 3 Zrotation Yrotation Xrotation
					JOINT Head
					{
						OFFSET 0.000000 0.927525 0.000000
						CHANNELS 3 Zrotation Yrotation Xrotation
						End Site
						{
							OFFSET 0.000000 0.000000 0.000000
						}
					}
				}
				JOINT LeftUpArm_virtual
				{
					OFFSET 0.000000 0.000000 0.000000
					CHANNELS 3 Zrotation Yrotation Xrotation
					JOINT LeftUpArm
					{
						OFFSET 1.248820 0.000000 0.000000
						CHANNELS 3 Zrotation Yrotation Xrotation
						JOINT LeftForeArm
						{
							OFFSET 2.597580 0.000000 0.000000
							CHANNELS 3 Zrotation Yrotation Xrotation
							JOINT LeftHand
							{
								OFFSET 2.455420 0.000000 0.000000
								CHANNELS 3 Zrotation Yrotation Xrotation
								End Site
								{
									OFFSET 0.000000 0.000000 0.000000
								}
							}
						}
					}
				}
				JOINT RightUpArm_virtual
				{
					OFFSET -0.000000 -0.000000 -0.000000
					CHANNELS 3 Zrotation Yrotation Xrotation
					JOINT RightUpArm
					{
						OFFSET -1.248820 -0.000000 -0.000000
						CHANNELS 3 Zrotation Yrotation Xrotation
						JOINT RightForeArm
						{
							OFFSET -2.597580 -0.000000 -0.000000
							CHANNELS 3 Zrotation Yrotation Xrotation
							JOINT RightHand
							{
								OFFSET -2.455420 -0.000000 -0.000000
								CHANNELS 3 Zrotation Yrotation Xrotation
								End Site
								{
									OFFSET 0.000000 0.000000 0.000000
								}
							}
						}
					}
				}
			}
		}
	}
	JOINT LeftUpLeg
	{
		OFFSET 1.271939 0.000000 0.000000
		CHANNELS 3 Zrotation Yrotation Xrotation
		JOINT LeftLowLeg
		{
			OFFSET 0.000000 -4.342910 0.000000
			CHANNELS 3 Zrotation Yrotation Xrotation
			JOINT LeftFoot
			{
				OFFSET 0.000000 -4.487670 0.000000
				CHANNELS 3 Zrotation Yrotation Xrotation
				JOINT LeftToeBase
				{
					OFFSET 0.000000 0.000000 1.515070
					CHANNELS 3 Zrotation Yrotation Xrotation
					End Site
					{
						OFFSET 0.000000 0.000000 0.000000
					}
				}
			}
		}
	}
	JOINT RightUpLeg
	{
		OFFSET -1.271939 0.000000 0.000000
		CHANNELS 3 Zrotation Yrotation Xrotation
		JOINT RightLowLeg
		{
			OFFSET 0.000000 -4.342910 0.000000
			CHANNELS 3 Zrotation Yrotation Xrotation
			JOINT RightFoot
			{
				OFFSET 0.000000 -4.487670 0.000000
				CHANNELS 3 Zrotation Yrotation Xrotation
				JOINT RightToeBase
				{
					OFFSET 0.000000 0.000000 1.515070
					CHANNELS 3 Zrotation Yrotation Xrotation
					End Site
					{
						OFFSET 0.000000 0.000000 0.000000
					}
				}
			}
		}
	}
}
MOTION
Frames: 11
Frame Time: 0.041667
-19.486636 8.967498 38.621760 -173.764442 59.324633 -158.918277 -10.131202 -4.862209 -15.221796 6.453913 9.083353 -3.263438 0.000000 0.000000 0.000000 33.188441 -0.812969 6.181311 7.328101 7.465429 -85.598346 -22.580601 3.903960 2.273010 -45.333698 1.826150 14.621800 0.000000 -17.507799 0.000000 7.981260 12.483100 -10.088100 26.997000 -8.564110 -8.239014 30.622700 3.082810 -53.406006 -180.000000 76.160004 -180.000000 20.147301 18.877300 -56.128601 -0.738198 0.576738 -15.165486 0.000000 0.000000 13.206700 -14.945877 11.505277 -6.964720 0.000000 0.000000 -18.551510 -4.813767 4.298818 -35.503107 0.000000 0.000000 38.910000 39.901738 1.047655 -1.725689 0.000000 0.000000 -19.996980 
-19.437277 8.964936 38.658555 -173.613594 59.914249 -159.051900 -10.231990 -4.968334 -15.429809 6.648484 8.990054 -3.192640 0.000000 0.000000 0.000000 32.574404 -0.167457 7.615398 7.288732 6.995064 -85.736014 -22.832001 3.959750 2.507996 -44.857498 1.237100 13.532200 0.000000 -18.465200 0.000000 8.740220 12.428900 -11.433500 27.378201 -9.394420 -7.845001 31.508400 1.478360 -53.404999 -180.000000 74.570000 -180.000000 20.917400 19.746700 -55.497101 -0.470713 0.938210 -14.646108 0.000000 0.000000 13.196800 -15.507389 11.531039 -7.319211 0.000000 0.000000 -18.404900 -4.832482 4.000839 -34.260554 0.000000 0.000000 39.055199 38.724869 0.063043 -2.754301 0.000000 0.000000 -19.334940 
-19.384483 8.961246 38.697834 -173.581721 60.554753 -159.249826 -10.296361 -5.039998 -15.754586 6.674563 8.872186 -3.043722 0.000000 0.000000 0.000000 31.965693 0.545761 9.016779 7.204837 6.576292 -85.846582 -23.034300 3.961240 2.502014 -44.417099 0.868519 12.436900 0.000000 -19.428600 0.000000 9.517600 12.295600 -12.552300 27.721500 -10.237400 -7.809998 32.541801 -0.186199 -53.217987 180.000000 73.209000 180.000000 21.466801 20.312099 -54.734501 -0.235348 1.220784 -14.148078 0.000000 0.000000 13.204700 -16.074436 11.637678 -7.672444 0.000000 0.000000 -18.290360 -5.030995 4.000568 -33.017676 0.000000 0.000000 39.071800 37.885151 -0.931985 -3.723493 0.000000 0.000000 -19.842500 
-19.329673 8.957206 38.740278 -173.552835 61.229024 -159.602133 -10.308519 -5.108351 -15.871594 6.601071 8.792444 -3.023705 0.000000 0.000000 0.000000 31.588753 1.065324 10.367797 6.820618 6.176818 -85.888788 -23.232100 4.048980 2.524994 -43.961399 0.454974 11.525700 0.000000 -20.328100 0.000000 10.212800 12.246200 -13.640100 28.066799 -10.982300 -7.850006 33.495800 -1.934050 -53.166992 180.000000 72.044998 180.000000 22.121700 20.560499 -54.020802 0.017481 1.491611 -13.500662 0.000000 0.000000 13.253400 -16.852875 11.701621 -8.081137 0.000000 0.000000 -18.108350 -5.163528 3.861505 -31.560265 0.000000 0.000000 38.902699 36.917024 -2.003044 -4.466234 0.000000 0.000000 -19.670880 
-19.269071 8.952925 38.785256 -173.522131 61.955514 -160.020504 -10.290373 -5.141733 -16.127455 6.517119 8.650420 -2.725821 0.000000 0.000000 0.000000 31.180905 1.599240 11.606371 6.331457 5.807103 -85.903760 -23.431900 4.053750 2.217987 -43.547100 0.317711 10.911700 0.000000 -21.161400 0.000000 11.054300 12.211000 -14.253900 28.428499 -11.720400 -7.763000 34.414200 -3.283820 -53.080994 180.000000 71.095001 180.000000 21.757099 20.448099 -53.205502 0.285428 1.821273 -12.703124 0.000000 0.000000 13.217000 -17.600958 11.779601 -8.459725 0.000000 0.000000 -17.988160 -5.301020 3.836632 -29.888576 0.000000 0.000000 38.362400 36.367898 -2.784763 -5.048177 0.000000 0.000000 -19.830330 
-19.203645 8.948119 38.833098 -173.420101 62.747255 -160.467363 -10.241926 -5.163665 -16.333832 6.498732 8.518648 -2.507005 0.000000 0.000000 0.000000 30.583519 2.229436 12.974249 5.854600 5.284257 -85.971237 -23.693600 4.027540 2.162994 -43.147099 0.105637 9.344090 0.000000 -21.942400 0.000000 10.799400 12.691700 -14.379400 28.650400 -12.396700 -7.601990 35.306599 -4.527430 -53.127991 180.000000 70.322998 180.000000 21.719801 20.208900 -52.483101 0.622409 2.014883 -11.772582 0.000000 0.000000 13.194700 -18.486738 11.965900 -8.929563 0.000000 0.000000 -17.807520 -5.381371 3.848529 -28.054835 0.000000 0.000000 37.637901 35.800317 -3.558243 -5.589709 0.000000 0.000000 -19.916640 
-19.134412 8.941398 38.886190 -173.251856 63.647497 -160.882705 -9.887442 -5.073770 -16.935349 6.025948 8.081018 -1.529542 0.000000 0.000000 0.000000 29.925136 3.093067 14.111832 5.285871 5.006358 -85.994887 -23.778999 4.219410 1.614990 -42.736500 -0.146503 8.841580 0.000000 -22.464600 0.000000 11.513900 12.748200 -15.081000 29.103901 -12.634200 -7.595001 36.233398 -5.366160 -53.388000 -180.000000 69.767998 -180.000000 21.853600 19.864500 -51.704399 0.992322 2.359802 -10.764338 0.000000 0.000000 13.152800 -19.420883 12.040544 -9.433672 0.000000 0.000000 -17.622730 -5.405820 3.897279 -26.191854 0.000000 0.000000 36.805500 35.334941 -4.510040 -6.281830 0.000000 0.000000 -19.218320 
-19.061724 8.933425 38.943051 -173.118612 64.641728 -161.596321 -9.668405 -4.992195 -17.173558 5.796069 7.849023 -0.831799 0.000000 0.000000 0.000000 29.198004 3.805240 15.311502 4.741126 4.454985 -85.972072 -23.985500 4.253400 1.431000 -42.367599 -0.447483 7.846560 0.000000 -22.717600 0.000000 11.708800 12.850000 -15.406400 29.401199 -13.070000 -7.832001 36.924999 -6.139320 -53.272003 -180.000000 69.375000 -180.000000 21.721901 19.542400 -50.878601 1.369416 2.734464 -9.441969 0.000000 0.000000 13.089400 -20.442801 12.089348 -9.946969 0.000000 0.000000 -17.467390 -5.409629 4.097598 -24.096386 0.000000 0.000000 35.912800 34.482492 -5.669370 -6.833887 0.000000 0.000000 -18.963020 
-18.986794 8.922921 39.004443 -173.025487 65.794291 -162.371317 -9.327251 -4.830277 -17.437603 5.351949 7.592404 -0.120045 0.000000 0.000000 0.000000 28.470160 4.503661 16.590978 4.114363 3.828437 -85.906994 -24.128599 4.279370 1.130005 -41.951801 -0.533744 8.258570 0.000000 -22.590900 0.000000 13.238300 11.982300 -15.906100 29.705799 -13.356000 -8.045990 37.586201 -6.601410 -53.290985 180.000000 69.081001 180.000000 21.000200 18.659000 -47.057701 1.728753 3.091094 -8.070019 0.000000 0.000000 13.099700 -21.621100 12.154515 -10.569361 0.000000 0.000000 -17.227270 -5.408051 4.239175 -21.992594 0.000000 0.000000 34.911701 33.685344 -6.711813 -7.312385 0.000000 0.000000 -18.788910 
-18.910035 8.909516 39.075171 -172.936653 67.101822 -163.062128 -9.075800 -4.684485 -17.678793 5.058537 7.419181 0.389279 0.000000 0.000000 0.000000 27.590424 5.217283 17.866169 3.492129 3.010987 -85.651671 -24.304100 4.365490 1.087006 -41.556400 -0.806989 7.508530 0.000000 -22.465500 0.000000 13.200600 11.950700 -16.160101 29.867399 -13.572100 -8.183990 38.134201 -6.818370 -53.315002 180.000000 68.870003 180.000000 20.922300 18.397400 -45.082100 2.098219 3.608605 -6.746629 0.000000 0.000000 13.101400 -22.884146 12.123440 -11.176978 0.000000 0.000000 -17.255510 -5.383641 4.622267 -20.131594 0.000000 0.000000 34.033199 33.086499 -7.827981 -7.736226 0.000000 0.000000 -18.649250 
-18.832715 8.893128 39.154272 -172.867050 68.566939 -163.706305 -8.789668 -4.491214 -17.971759 4.717734 7.249813 0.906244 0.000000 0.000000 0.000000 26.686155 5.878306 19.069664 2.768596 2.124062 -85.299007 -24.405701 4.394670 0.746002 -41.248600 -0.785155 7.077980 0.000000 -22.155800 0.000000 13.392000 11.755200 -16.193501 30.046499 -13.637000 -8.421997 38.381401 -6.918480 -53.053986 180.000000 68.788002 180.000000 21.091499 18.654600 -45.445099 2.475536 4.019426 -5.480070 0.000000 0.000000 13.173800 -24.244972 12.229213 -11.900870 0.000000 0.000000 -17.174290 -5.340230 5.356087 -18.502596 0.000000 0.000000 33.307800 32.795918 -8.921131 -7.975903 0.000000 0.000000 -18.267330 
